# xmcd
#
# Track frame offsets: 
#        150
#        13128
#        26303
#        41163
#        54773
#        68533
#        82983
#        94928
#        108405
#        123100
#        134888
#        147588
#
# Disc length: 2141 seconds
#
# Revision: 1
# Processed by: cddbd v1.5.1PL0 Copyright (c) Steve Scherf et al.
# Submitted via: ExactAudioCopy v0.90b4
#
DISCID=9f085b0c
DTITLE=Billie Holiday - Golden Era Collection
DYEAR=1900
DGENRE=Vocal
TTITLE0=St. Louis Blues
TTITLE1=God Bless The Child
TTITLE2=Georgia On My Mind
TTITLE3=All Of Me
TTITLE4=Everybody's Laughing
TTITLE5=I Cried For You
TTITLE6=Billie's Blues
TTITLE7=What A Little Moonlight Can Do
TTITLE8=Can't Help Lovin' Dat Man
TTITLE9=Me, Myself And I
TTITLE10=Why Was I Born
TTITLE11=I've Got My Love To Keep Me Warm
EXTD=
EXTT0=
EXTT1=
EXTT2=
EXTT3=
EXTT4=
EXTT5=
EXTT6=
EXTT7=
EXTT8=
EXTT9=
EXTT10=
EXTT11=
PLAYORDER=
